# Convex hull of Base.STL, generated for use as BlueBoat's physical/collision mesh
# (Base.STL itself is not a valid watertight solid: it was only ever used as a
#  Gazebo visual mesh, and its raw 720909-triangle mesh is far too dense for a
#  dynamic-body convex-hull collision shape in Stonefish.)
v -0.660621 -0.292254 -0.408826
v -0.660601 -0.291450 -0.410360
v -0.660601 0.291524 -0.410360
v -0.660594 -0.292460 -0.408752
v -0.660587 -0.292408 -0.408627
v -0.660584 0.292203 -0.410285
v -0.660567 -0.292313 -0.408403
v -0.660556 -0.292275 -0.408315
v -0.660545 -0.292242 -0.408237
v -0.660534 -0.292212 -0.408168
v -0.660527 -0.292804 -0.410038
v -0.660527 0.292879 -0.410038
v -0.660520 -0.292175 -0.408082
v -0.660519 -0.292928 -0.409903
v -0.660519 0.293002 -0.409903
v -0.660511 -0.292154 -0.408035
v -0.660479 -0.292029 -0.407870
v -0.660476 -0.291449 -0.407838
v -0.660476 0.291524 -0.407838
v -0.660475 0.291568 -0.407837
v -0.660459 0.291821 -0.407777
v -0.660455 -0.291778 -0.407762
v -0.660455 0.291852 -0.407762
v -0.660442 -0.291977 -0.407715
v -0.660429 0.291960 -0.407663
v -0.660410 0.292035 -0.407594
v -0.660373 -0.293525 -0.409658
v -0.660373 0.293599 -0.409658
v -0.660363 0.292791 -0.407603
v -0.660362 -0.292723 -0.407603
v -0.660239 -0.293932 -0.409054
v -0.660239 0.294006 -0.409054
v -0.660203 -0.291445 -0.411735
v -0.660203 0.291519 -0.411735
v -0.660113 -0.293329 -0.411280
v -0.660101 -0.294203 -0.408382
v -0.660101 0.294277 -0.408382
v -0.659979 -0.294225 -0.407697
v -0.659966 0.294333 -0.407701
v -0.659464 -0.291441 -0.413012
v -0.659464 0.291515 -0.413012
v -0.659442 -0.292607 -0.412881
v -0.659442 0.292681 -0.412881
v -0.659379 -0.293775 -0.412438
v -0.659378 0.293849 -0.412439
v -0.659378 0.295448 -0.407853
v -0.659374 -0.295380 -0.407854
v -0.659371 -0.293836 -0.412409
v -0.659371 0.293911 -0.412409
v -0.659227 -0.294822 -0.411629
v -0.659227 0.294897 -0.411629
v -0.659056 -0.295596 -0.410545
v -0.659056 0.295670 -0.410545
v -0.658881 -0.296097 -0.409310
v -0.658881 0.296171 -0.409310
v -0.658707 -0.296205 -0.408028
v -0.658707 0.296279 -0.408028
v -0.658435 -0.291437 -0.414071
v -0.658435 0.291512 -0.414071
v -0.658100 0.293907 -0.413786
v -0.658026 -0.294124 -0.413694
v -0.657447 0.294356 -0.414002
v -0.657441 -0.294283 -0.414006
v -0.657360 -0.294100 -0.414147
v -0.657353 0.294124 -0.414175
v -0.657301 0.297350 -0.408399
v -0.657294 -0.297279 -0.408401
v -0.657217 -0.291436 -0.414828
v -0.657217 0.291510 -0.414828
v -0.657202 -0.292856 -0.414673
v -0.657192 -0.295629 -0.413105
v -0.657192 0.295704 -0.413105
v -0.657072 -0.296672 -0.411761
v -0.657072 0.296747 -0.411761
v -0.656952 -0.297333 -0.410195
v -0.656952 0.297408 -0.410195
v -0.656827 -0.297505 -0.408525
v -0.656827 0.297580 -0.408525
v -0.656021 -0.294355 -0.414561
v -0.655958 -0.295800 -0.413564
v -0.655958 0.295875 -0.413564
v -0.655932 -0.291435 -0.415259
v -0.655932 0.291510 -0.415259
v -0.655894 0.294419 -0.414597
v -0.655894 0.294428 -0.414593
v -0.655886 -0.296930 -0.412194
v -0.655886 0.297004 -0.412194
v -0.654687 -0.291436 -0.415391
v -0.654687 0.291325 -0.415388
v -0.654683 -0.292836 -0.415249
v -0.654669 -0.294290 -0.414765
v -0.654669 -0.294273 -0.414773
v -0.654669 0.294364 -0.414765
v -0.654658 -0.295773 -0.413809
v -0.654658 0.295864 -0.413794
v -0.654636 -0.297251 -0.411962
v -0.654636 0.297322 -0.411969
v -0.654623 -0.297700 -0.410870
v -0.654623 0.297774 -0.410870
v -0.615959 -0.317707 -0.230110
v -0.615959 0.317781 -0.230110
v -0.613224 -0.320540 -0.219901
v -0.613224 0.320614 -0.219901
v -0.610774 -0.311442 -0.210756
v -0.610774 0.311517 -0.210756
v -0.610485 -0.323323 -0.209681
v -0.609894 -0.324311 -0.207524
v -0.609894 0.324385 -0.207524
v -0.609280 -0.324522 -0.205182
v -0.609280 0.324596 -0.205181
v -0.608728 -0.324123 -0.203121
v -0.603955 -0.329571 -0.185310
v -0.603955 0.329645 -0.185310
v -0.603838 -0.331140 -0.185725
v -0.603838 0.331213 -0.185725
v -0.597801 0.335043 -0.162342
v -0.597799 -0.334971 -0.162336
v -0.597796 -0.336426 -0.163150
v -0.597795 0.336500 -0.163150
v -0.591721 -0.341370 -0.140495
v -0.591721 0.341444 -0.140495
v -0.591448 -0.325473 -0.138631
v -0.591130 -0.342919 -0.140973
v -0.591129 0.342993 -0.140973
v -0.590118 -0.344210 -0.141511
v -0.590117 0.344284 -0.141511
v -0.589071 0.341940 -0.129762
v -0.589068 -0.341870 -0.129749
v -0.585761 -0.344102 -0.117408
v -0.585761 0.344174 -0.117408
v -0.585620 -0.347470 -0.130301
v -0.585611 -0.345712 -0.117720
v -0.585611 0.347548 -0.130277
v -0.585610 0.345785 -0.117720
v -0.584981 -0.347295 -0.118156
v -0.584980 0.347369 -0.118156
v -0.584490 -0.347510 -0.139096
v -0.584489 0.347583 -0.139096
v -0.583919 -0.348605 -0.118661
v -0.583918 0.348679 -0.118661
v -0.582792 0.345894 -0.106327
v -0.582580 -0.349498 -0.119170
v -0.582578 0.349572 -0.119171
v -0.581891 -0.349095 -0.106674
v -0.581890 0.349168 -0.106673
v -0.581609 -0.346423 -0.101915
v -0.580805 -0.350413 -0.107150
v -0.580803 0.350487 -0.107150
v -0.579638 -0.347319 -0.094558
v -0.579638 0.347390 -0.094558
v -0.579462 -0.348957 -0.094791
v -0.579461 0.349030 -0.094790
v -0.578797 -0.351491 -0.113087
v -0.578796 0.351563 -0.113087
v -0.578795 -0.350567 -0.095151
v -0.578794 0.350640 -0.095151
v -0.578158 -0.351954 -0.102887
v -0.578146 0.352031 -0.102856
v -0.577693 -0.351892 -0.095596
v -0.577691 0.351966 -0.095596
v -0.576317 -0.352785 -0.096066
v -0.576314 0.352858 -0.096066
v -0.575783 -0.353043 -0.100047
v -0.575782 0.353114 -0.100047
v -0.575289 0.348929 -0.078325
v -0.575256 -0.351673 -0.141764
v -0.575255 0.351746 -0.141764
v -0.574177 -0.349164 -0.074177
v -0.573479 -0.349341 -0.071573
v -0.573479 0.349413 -0.071572
v -0.573283 -0.350987 -0.071734
v -0.573283 0.351059 -0.071734
v -0.572643 -0.354266 -0.086979
v -0.572642 0.354337 -0.086979
v -0.572597 -0.352604 -0.072024
v -0.572596 0.352677 -0.072024
v -0.571495 0.354534 -0.078116
v -0.571490 -0.354464 -0.078084
v -0.571477 -0.353934 -0.072412
v -0.571475 0.354008 -0.072412
v -0.570089 -0.354830 -0.072843
v -0.570086 0.354904 -0.072844
v -0.570034 -0.353642 -0.145496
v -0.570034 0.353716 -0.145496
v -0.569516 -0.355531 -0.115745
v -0.569514 0.355600 -0.115745
v -0.567292 -0.350389 -0.048481
v -0.567292 0.350462 -0.048481
v -0.567064 -0.292870 -0.047798
v -0.567064 0.292944 -0.047798
v -0.567041 -0.355213 -0.141068
v -0.567041 0.355286 -0.141068
v -0.566883 -0.352635 -0.048640
v -0.566883 0.352708 -0.048640
v -0.566489 -0.357049 -0.102702
v -0.566486 -0.354788 -0.149285
v -0.566486 0.354863 -0.149285
v -0.566486 0.357116 -0.102701
v -0.566387 -0.353636 -0.048794
v -0.566387 0.353710 -0.048795
v -0.566287 0.350462 -0.046421
v -0.566286 -0.350389 -0.046420
v -0.565934 -0.352647 -0.046685
v -0.565934 0.352721 -0.046686
v -0.565830 -0.292870 -0.045884
v -0.565830 0.292944 -0.045884
v -0.565690 -0.354554 -0.049001
v -0.565690 0.354628 -0.049002
v -0.565268 -0.354965 -0.049123
v -0.564929 -0.354573 -0.047444
v -0.564929 0.354647 -0.047445
v -0.563887 -0.355867 -0.049513
v -0.563886 0.355941 -0.049514
v -0.563747 -0.356828 -0.136891
v -0.563747 0.356902 -0.136891
v -0.563348 -0.358268 -0.089634
v -0.563345 0.358335 -0.089633
v -0.560170 0.358548 -0.132980
v -0.560169 -0.358474 -0.132980
v -0.560112 -0.359248 -0.118376
v -0.560110 0.359318 -0.118376
v -0.557983 -0.358008 -0.150208
v -0.557983 0.358082 -0.150208
v -0.556308 -0.360149 -0.129334
v -0.556308 0.360223 -0.129334
v -0.553947 -0.361996 -0.092266
v -0.553944 0.362063 -0.092266
v -0.553934 -0.360741 -0.134536
v -0.553934 0.360816 -0.134536
v -0.551356 -0.361827 -0.132270
v -0.551356 0.361901 -0.132270
v -0.551189 -0.362255 -0.124843
v -0.551189 0.362329 -0.124843
v -0.550591 -0.362662 -0.120983
v -0.550590 0.362735 -0.120983
v -0.548774 -0.362892 -0.130002
v -0.548774 0.362967 -0.130002
v -0.545440 0.364322 -0.126900
v -0.544446 -0.365461 -0.094877
v -0.544444 0.365529 -0.094876
v -0.540787 -0.366116 -0.121893
v -0.540492 0.366308 -0.121544
v -0.533989 -0.368799 -0.112586
v -0.533989 0.368873 -0.112586
v -0.515440 -0.372351 -0.150376
v -0.515440 0.372425 -0.150376
v -0.511163 -0.375567 -0.127650
v -0.511163 0.375641 -0.127650
v -0.471273 -0.384842 -0.150581
v -0.471273 0.384916 -0.150581
v -0.469124 -0.387789 -0.127558
v -0.469124 0.387864 -0.127558
v -0.437590 -0.351963 0.095418
v -0.437590 0.352037 0.095418
v -0.437318 -0.358542 0.095418
v -0.437318 0.358616 0.095418
v -0.437232 -0.351963 0.095627
v -0.437232 0.352037 0.095627
v -0.436961 -0.358513 0.095627
v -0.436961 0.358587 0.095627
v -0.436503 -0.365076 0.095418
v -0.436503 0.365151 0.095418
v -0.436151 -0.365018 0.095627
v -0.436151 0.365092 0.095627
v -0.435152 -0.371521 0.095418
v -0.435152 0.371595 0.095418
v -0.434805 -0.371433 0.095627
v -0.434805 0.371508 0.095627
v -0.433273 -0.377832 0.095418
v -0.433273 0.377907 0.095418
v -0.432935 -0.377716 0.095627
v -0.432935 0.377791 0.095627
v -0.430879 -0.383967 0.095418
v -0.430879 0.384041 0.095418
v -0.430552 -0.383823 0.095627
v -0.430552 0.383897 0.095627
v -0.429170 -0.296000 -0.413753
v -0.429170 0.296075 -0.413752
v -0.429140 -0.293957 -0.415100
v -0.429140 0.294032 -0.415100
v -0.429102 -0.291632 -0.415595
v -0.429102 0.291707 -0.415595
v -0.428347 -0.395449 -0.150770
v -0.428347 0.395523 -0.150770
v -0.428200 -0.389998 0.095083
v -0.428200 0.390072 0.095083
v -0.428128 -0.398432 -0.127486
v -0.428128 0.398506 -0.127486
v -0.427987 -0.389883 0.095418
v -0.427987 0.389957 0.095418
v -0.427673 -0.389712 0.095627
v -0.427673 0.389787 0.095627
v -0.424819 -0.395672 0.095083
v -0.424819 0.395746 0.095083
v -0.424617 -0.395539 0.095418
v -0.424617 0.395614 0.095418
v -0.424317 -0.395344 0.095627
v -0.424317 0.395418 0.095627
v -0.420981 -0.401047 0.095083
v -0.420981 0.401122 0.095083
v -0.420790 -0.400898 0.095418
v -0.420790 0.400973 0.095418
v -0.420508 -0.400679 0.095627
v -0.420508 0.400753 0.095627
v -0.416713 -0.406087 0.095083
v -0.416713 0.406162 0.095083
v -0.416534 -0.405923 0.095418
v -0.416534 0.405997 0.095418
v -0.416271 -0.405681 0.095627
v -0.416271 0.405755 0.095627
v -0.412042 -0.410758 0.095083
v -0.412042 0.410832 0.095083
v -0.411878 -0.410579 0.095418
v -0.411878 0.410654 0.095418
v -0.411636 -0.410316 0.095627
v -0.411636 0.410391 0.095627
v -0.407002 -0.415026 0.095083
v -0.407002 0.415101 0.095083
v -0.406853 -0.414835 0.095418
v -0.406853 0.414910 0.095418
v -0.406634 -0.414553 0.095627
v -0.406634 0.414627 0.095627
v -0.401674 -0.418936 0.094678
v -0.401674 0.419010 0.094678
v -0.401627 -0.418864 0.095083
v -0.401627 0.418939 0.095083
v -0.401494 -0.418662 0.095418
v -0.401494 0.418736 0.095418
v -0.401299 -0.418362 0.095627
v -0.401299 0.418437 0.095627
v -0.395994 -0.422321 0.094678
v -0.395994 0.422395 0.094678
v -0.395953 -0.422245 0.095083
v -0.395953 0.422320 0.095083
v -0.395838 -0.422032 0.095418
v -0.395838 0.422107 0.095418
v -0.395667 -0.421718 0.095627
v -0.395667 0.421792 0.095627
v -0.390053 -0.425225 0.094678
v -0.390053 0.425299 0.094678
v -0.390019 -0.425146 0.095083
v -0.390019 0.425221 0.095083
v -0.389922 -0.424924 0.095418
v -0.389922 0.424999 0.095418
v -0.389778 -0.424597 0.095627
v -0.389778 0.424671 0.095627
v -0.387602 -0.291631 -0.415612
v -0.387602 0.291706 -0.415612
v -0.387565 -0.293958 -0.415115
v -0.387565 0.294032 -0.415115
v -0.387547 -0.296001 -0.413763
v -0.387547 0.296076 -0.413763
v -0.383894 -0.427628 0.090997
v -0.383894 -0.427628 0.094678
v -0.383894 0.427703 0.090997
v -0.383894 0.427703 0.094678
v -0.383866 -0.427547 0.095083
v -0.383866 0.427621 0.095083
v -0.383787 -0.427318 0.095418
v -0.383787 0.427392 0.095418
v -0.383671 -0.426980 0.095627
v -0.383671 0.427054 0.095627
v -0.377557 -0.429515 0.090997
v -0.377557 -0.429515 0.094678
v -0.377557 0.429589 0.090997
v -0.377557 0.429589 0.094678
v -0.377536 -0.429432 0.095083
v -0.377536 0.429506 0.095083
v -0.377476 -0.429197 0.095418
v -0.377476 0.429271 0.095418
v -0.377388 -0.428850 0.095627
v -0.377388 0.428925 0.095627
v -0.371085 -0.430872 0.090997
v -0.371085 -0.430872 0.094678
v -0.371085 0.430946 0.090997
v -0.371085 0.430946 0.094678
v -0.371071 -0.430787 0.095083
v -0.371071 0.430862 0.095083
v -0.371031 -0.430548 0.095418
v -0.371031 0.430622 0.095418
v -0.370973 -0.430196 0.095627
v -0.370973 0.430270 0.095627
v -0.364524 -0.431690 0.090997
v -0.364524 -0.431690 0.094678
v -0.364524 0.431764 0.090997
v -0.364524 0.431764 0.094678
v -0.364517 -0.431604 0.095083
v -0.364517 0.431679 0.095083
v -0.364497 -0.431363 0.095418
v -0.364497 0.431437 0.095418
v -0.364468 -0.431006 0.095627
v -0.364468 0.431081 0.095627
v -0.357918 -0.431963 0.094678
v -0.357918 -0.431877 0.095083
v -0.357918 -0.431635 0.095418
v -0.357918 -0.431277 0.095627
v -0.357918 -0.351963 0.121900
v -0.357918 0.352037 0.121900
v -0.357918 0.431352 0.095627
v -0.357918 0.431709 0.095418
v -0.357918 0.431951 0.095083
v -0.357918 0.432037 0.094678
v -0.357619 -0.419240 -0.085025
v -0.357619 0.419314 -0.085025
v -0.356699 -0.414987 -0.127362
v -0.356699 0.415061 -0.127362
v -0.356215 -0.411096 -0.151030
v -0.356215 0.411170 -0.151030
v -0.354047 -0.296001 -0.413765
v -0.354047 0.296076 -0.413765
v -0.354010 -0.293957 -0.415117
v -0.354010 0.294032 -0.415117
v -0.353985 -0.291631 -0.415615
v -0.353985 0.291705 -0.415615
v -0.351368 -0.431006 0.095627
v -0.351368 0.431081 0.095627
v -0.351339 -0.431363 0.095418
v -0.351339 0.431437 0.095418
v -0.351319 -0.431604 0.095083
v -0.351319 0.431679 0.095083
v -0.344863 -0.430196 0.095627
v -0.344863 0.430270 0.095627
v -0.344804 -0.430548 0.095418
v -0.344804 0.430622 0.095418
v -0.344764 -0.430787 0.095083
v -0.344764 0.430862 0.095083
v -0.338447 -0.428850 0.095627
v -0.338447 0.428925 0.095627
v -0.338360 -0.429197 0.095418
v -0.338360 0.429271 0.095418
v -0.332048 -0.427318 0.095418
v -0.332048 0.427392 0.095418
v -0.289904 -0.422546 -0.151176
v -0.289904 0.422620 -0.151175
v -0.289887 -0.427450 -0.127220
v -0.289887 0.427525 -0.127220
v -0.289863 -0.432815 -0.084899
v -0.289863 0.432889 -0.084899
v -0.259412 -0.439735 -0.045669
v -0.259412 0.439810 -0.045669
v -0.242337 -0.164007 0.150653
v -0.242337 0.161493 0.150653
v -0.221252 -0.443005 -0.084757
v -0.221252 0.443079 -0.084757
v -0.221186 -0.444996 -0.045670
v -0.221098 -0.437397 -0.127069
v -0.221098 0.437471 -0.127069
v -0.221003 -0.432172 -0.151328
v -0.221003 0.432246 -0.151328
v -0.194018 -0.448050 -0.045670
v -0.194018 0.448124 -0.045670
v -0.152444 -0.449752 -0.084638
v -0.152444 0.449826 -0.084638
v -0.152432 -0.451634 -0.045668
v -0.152426 -0.296002 -0.413755
v -0.152426 -0.293958 -0.415103
v -0.152426 0.294033 -0.415103
v -0.152426 0.296076 -0.413755
v -0.152425 -0.297500 -0.411510
v -0.152425 0.297575 -0.411510
v -0.152421 -0.444422 -0.126966
v -0.152421 0.444496 -0.126966
v -0.152407 -0.439342 -0.151510
v -0.152407 0.439416 -0.151510
v -0.152396 -0.429285 -0.177464
v -0.152396 0.429359 -0.177464
v -0.128115 -0.453123 -0.045667
v -0.128115 0.453198 -0.045667
v -0.083610 -0.432995 -0.177880
v -0.083610 0.433069 -0.177880
v -0.083608 -0.443061 -0.151665
v -0.083608 0.443136 -0.151665
v -0.083603 -0.447920 -0.126939
v -0.083603 0.447994 -0.126939
v -0.083599 -0.452931 -0.084588
v -0.083599 0.453005 -0.084588
v -0.062122 -0.454921 -0.045663
v -0.062122 0.454995 -0.045663
v -0.062121 -0.454513 -0.043424
v -0.062121 0.454587 -0.043424
v -0.014906 -0.452552 -0.084560
v -0.014906 0.452626 -0.084560
v -0.014881 -0.447880 -0.126910
v -0.014881 0.447954 -0.126910
v -0.014868 -0.443300 -0.151670
v -0.014868 0.443374 -0.151669
v -0.014854 -0.433461 -0.177940
v -0.014854 0.433536 -0.177939
v -0.014848 -0.426146 -0.190876
v -0.014769 -0.291628 -0.415593
v -0.014769 0.291702 -0.415593
v -0.014675 -0.293952 -0.415097
v -0.014675 0.294027 -0.415096
v -0.014594 -0.295995 -0.413749
v -0.014594 0.296070 -0.413749
v -0.014540 -0.297496 -0.411507
v -0.014540 0.297570 -0.411507
v -0.003423 -0.446577 -0.017077
v -0.003423 0.446651 -0.017077
v 0.003939 -0.453030 -0.043421
v 0.003939 0.453105 -0.043421
v 0.003958 -0.453440 -0.045659
v 0.003958 0.453514 -0.045659
v 0.008284 0.445905 -0.016428
v 0.008294 0.446105 -0.017077
v 0.011609 -0.445657 -0.016428
v 0.011620 -0.445857 -0.017077
v 0.035781 0.444214 -0.016428
v 0.039098 -0.443897 -0.016428
v 0.052708 -0.297517 -0.410564
v 0.052708 0.297592 -0.410564
v 0.052848 -0.296026 -0.412898
v 0.052848 0.296101 -0.412898
v 0.053058 -0.293983 -0.414367
v 0.053058 0.294057 -0.414367
v 0.053300 -0.291652 -0.414995
v 0.053300 0.291726 -0.414995
v 0.053442 -0.424023 -0.190270
v 0.053476 -0.431045 -0.177429
v 0.053476 0.431119 -0.177429
v 0.053552 -0.440355 -0.151352
v 0.053552 0.440430 -0.151352
v 0.053631 -0.444496 -0.126730
v 0.053631 0.444570 -0.126730
v 0.053773 -0.448670 -0.084455
v 0.053773 0.448745 -0.084455
v 0.054321 -0.442874 -0.017077
v 0.054321 0.442948 -0.017077
v 0.063236 0.441949 -0.016428
v 0.066564 -0.441561 -0.016428
v 0.069798 -0.448275 -0.043417
v 0.069798 0.448349 -0.043417
v 0.069837 -0.448684 -0.045653
v 0.069837 0.448758 -0.045653
v 0.086916 -0.297524 -0.408324
v 0.086916 0.297599 -0.408324
v 0.087060 -0.296036 -0.410654
v 0.087060 0.296110 -0.410654
v 0.087277 -0.293991 -0.412111
v 0.087277 0.294065 -0.412111
v 0.087526 -0.291656 -0.412721
v 0.087526 0.291730 -0.412721
v 0.090634 0.439112 -0.016428
v 0.090657 0.439310 -0.017077
v 0.093976 -0.438652 -0.016428
v 0.093999 -0.438849 -0.017077
v 0.103063 -0.437561 -0.016431
v 0.103063 0.437635 -0.016431
v 0.103087 -0.437752 -0.017018
v 0.103087 0.437826 -0.017018
v 0.109493 -0.436802 -0.016531
v 0.109493 0.436876 -0.016531
v 0.109511 -0.436941 -0.017018
v 0.109511 0.437015 -0.017018
v 0.115906 -0.435907 -0.016431
v 0.115906 0.435981 -0.016431
v 0.115931 -0.436103 -0.017077
v 0.115931 0.436177 -0.017077
v 0.117892 0.435146 -0.015772
v 0.117893 -0.435081 -0.015780
v 0.117967 -0.435630 -0.016432
v 0.117967 0.435702 -0.016428
v 0.117993 -0.435825 -0.017077
v 0.117993 0.435899 -0.017077
v 0.121815 -0.297517 -0.404137
v 0.121815 0.297591 -0.404137
v 0.121893 -0.296024 -0.406413
v 0.121893 0.296098 -0.406413
v 0.122009 -0.293976 -0.407795
v 0.122009 0.294050 -0.407795
v 0.122142 -0.291639 -0.408319
v 0.122142 0.291713 -0.408319
v 0.122212 -0.418548 -0.188386
v 0.122242 -0.425122 -0.175719
v 0.122242 0.425196 -0.175719
v 0.122309 -0.433753 -0.150062
v 0.122309 0.433827 -0.150062
v 0.122381 -0.437461 -0.125825
v 0.122381 0.437535 -0.125825
v 0.122508 -0.441185 -0.083959
v 0.122508 0.441260 -0.083959
v 0.125458 -0.433026 -0.015780
v 0.125458 0.433100 -0.015780
v 0.135205 -0.440277 -0.043413
v 0.135205 0.440352 -0.043413
v 0.135265 -0.440685 -0.045649
v 0.135265 0.440760 -0.045649
v 0.157326 -0.291590 -0.401374
v 0.157326 0.291664 -0.401374
v 0.157420 -0.293924 -0.400881
v 0.157420 0.293999 -0.400880
v 0.157502 -0.295978 -0.399531
v 0.157502 0.296053 -0.399530
v 0.157557 -0.297487 -0.397290
v 0.157557 0.297561 -0.397290
v 0.191568 -0.429908 -0.082755
v 0.191568 0.429983 -0.082755
v 0.191878 -0.426307 -0.123653
v 0.191878 0.426381 -0.123653
v 0.192052 -0.422785 -0.147180
v 0.192052 0.422859 -0.147180
v 0.192216 -0.414789 -0.172215
v 0.192216 0.414864 -0.172215
v 0.192365 -0.291512 -0.391789
v 0.192365 0.291587 -0.391789
v 0.192608 -0.293842 -0.391261
v 0.192608 0.293916 -0.391261
v 0.192819 -0.295904 -0.389892
v 0.192819 0.295978 -0.389892
v 0.192959 -0.297437 -0.387666
v 0.192959 0.297511 -0.387666
v 0.200161 -0.429044 -0.043413
v 0.200161 0.429119 -0.043413
v 0.200242 -0.429449 -0.045648
v 0.200242 0.429523 -0.045648
v 0.226944 -0.291423 -0.379702
v 0.226945 0.291497 -0.379702
v 0.226994 -0.395368 -0.194084
v 0.227212 -0.293749 -0.379161
v 0.227212 0.293823 -0.379161
v 0.227444 -0.295819 -0.377794
v 0.227444 0.295894 -0.377794
v 0.227599 -0.297381 -0.375604
v 0.227599 0.297455 -0.375604
v 0.244934 -0.164007 0.150653
v 0.244934 0.161493 0.150653
v 0.254070 -0.410532 -0.028202
v 0.254070 0.410607 -0.028202
v 0.254213 -0.410577 -0.028359
v 0.254213 0.410651 -0.028359
v 0.254687 -0.409878 -0.027463
v 0.254688 0.409953 -0.027463
v 0.255805 -0.409184 -0.026884
v 0.255805 0.409258 -0.026884
v 0.255989 -0.409252 -0.027071
v 0.255989 0.409326 -0.027071
v 0.256084 -0.408600 -0.026402
v 0.256084 0.408674 -0.026402
v 0.257409 -0.407486 -0.025778
v 0.257409 0.407560 -0.025778
v 0.260300 -0.414820 -0.081197
v 0.260300 0.414894 -0.081197
v 0.260566 -0.411085 -0.121206
v 0.260566 0.411159 -0.121206
v 0.260715 -0.407604 -0.143632
v 0.260715 0.407679 -0.143632
v 0.260855 -0.400364 -0.167415
v 0.260855 0.400438 -0.167414
v 0.260902 -0.291333 -0.365190
v 0.260902 0.291408 -0.365190
v 0.260972 -0.388636 -0.190864
v 0.260972 0.388711 -0.190864
v 0.261065 -0.293660 -0.364720
v 0.261065 0.293734 -0.364720
v 0.261206 -0.295740 -0.363428
v 0.261206 0.295814 -0.363428
v 0.261300 -0.297328 -0.361323
v 0.261300 0.297402 -0.361323
v 0.264646 -0.414563 -0.043416
v 0.264646 0.414637 -0.043416
v 0.264746 -0.414962 -0.045652
v 0.264746 0.415036 -0.045652
v 0.294012 -0.297288 -0.344833
v 0.294012 0.297363 -0.344833
v 0.294044 -0.295678 -0.346800
v 0.294044 0.295753 -0.346799
v 0.294092 -0.293589 -0.347930
v 0.294092 0.293663 -0.347930
v 0.294121 -0.381296 -0.186863
v 0.294121 0.381371 -0.186863
v 0.294147 -0.291256 -0.348225
v 0.294147 0.291330 -0.348225
v 0.294167 -0.391830 -0.164623
v 0.294167 0.391904 -0.164622
v 0.294223 -0.398554 -0.141974
v 0.294223 0.398628 -0.141974
v 0.294282 -0.401999 -0.120320
v 0.327949 -0.395600 -0.041357
v 0.327949 0.395674 -0.041357
v 0.328341 -0.396889 -0.043422
v 0.328341 0.396964 -0.043422
v 0.328460 -0.397281 -0.045660
v 0.328460 0.397355 -0.045660
v 0.328569 -0.297239 -0.324020
v 0.328569 0.297313 -0.324020
v 0.328576 -0.295593 -0.325931
v 0.328576 0.295667 -0.325931
v 0.328587 -0.293484 -0.327023
v 0.328587 0.293558 -0.327023
v 0.328600 -0.291139 -0.327284
v 0.328600 0.291214 -0.327284
v 0.328677 -0.373162 -0.180568
v 0.328677 0.373236 -0.180568
v 0.328696 -0.382252 -0.160278
v 0.328696 0.382327 -0.160278
v 0.328719 -0.388355 -0.139404
v 0.328719 0.388430 -0.139403
v 0.328744 -0.391769 -0.118942
v 0.328744 0.391844 -0.118942
v 0.328791 -0.395834 -0.079534
v 0.328791 0.395908 -0.079534
v 0.363093 -0.297107 -0.299334
v 0.363093 0.297182 -0.299334
v 0.363114 -0.295365 -0.301115
v 0.363114 0.295440 -0.301115
v 0.363144 -0.293197 -0.302089
v 0.363144 0.293272 -0.302089
v 0.363148 -0.364253 -0.170650
v 0.363148 0.364327 -0.170650
v 0.363161 -0.371627 -0.152988
v 0.363161 0.371702 -0.152987
v 0.363176 -0.376968 -0.134581
v 0.363176 0.377042 -0.134581
v 0.363179 -0.290847 -0.302232
v 0.363179 0.290922 -0.302232
v 0.363191 -0.380369 -0.115894
v 0.363191 0.380444 -0.115894
v 0.363212 -0.384745 -0.077863
v 0.363212 0.384819 -0.077863
v 0.390658 -0.374787 -0.041365
v 0.390658 0.374862 -0.041365
v 0.391115 -0.376054 -0.043437
v 0.391115 0.376128 -0.043437
v 0.391251 -0.376433 -0.045681
v 0.391251 0.376507 -0.045681
v 0.397351 -0.298213 -0.268276
v 0.397351 0.298287 -0.268276
v 0.397355 -0.296943 -0.270641
v 0.397355 0.297017 -0.270641
v 0.397367 -0.295072 -0.272230
v 0.397367 0.295146 -0.272230
v 0.397386 -0.292836 -0.273021
v 0.397386 0.292911 -0.273021
v 0.397573 -0.347815 -0.171219
v 0.397573 0.347890 -0.171218
v 0.397576 -0.354403 -0.157360
v 0.397576 0.354477 -0.157360
v 0.397580 -0.359970 -0.142742
v 0.397580 0.360044 -0.142742
v 0.397583 -0.372605 -0.075253
v 0.397583 0.372679 -0.075253
v 0.397584 -0.364448 -0.127293
v 0.397584 0.364522 -0.127293
v 0.397586 -0.367839 -0.110871
v 0.397586 0.367913 -0.110871
v 0.431789 -0.338654 -0.152803
v 0.431789 0.338729 -0.152803
v 0.431818 -0.347161 -0.130148
v 0.431818 0.347236 -0.130148
v 0.431874 -0.354155 -0.103915
v 0.431874 0.354229 -0.103915
v 0.431954 -0.359365 -0.071618
v 0.431954 0.359440 -0.071618
v 0.431991 -0.361003 -0.045714
v 0.431991 0.361077 -0.045714
v 0.432440 -0.292727 -0.237446
v 0.432440 0.292801 -0.237446
v 0.432462 -0.294971 -0.236723
v 0.432462 0.295045 -0.236723
v 0.432477 -0.296918 -0.235240
v 0.432477 0.296992 -0.235240
v 0.432482 -0.298324 -0.233075
v 0.432482 0.298398 -0.233075
v 0.432634 -0.308183 -0.213860
v 0.432634 0.308257 -0.213860
v 0.432784 -0.318093 -0.194344
v 0.432784 0.318167 -0.194344
v 0.448831 -0.333411 -0.142048
v 0.448831 0.333485 -0.142048
v 0.448885 -0.340566 -0.122153
v 0.448885 0.340641 -0.122153
v 0.448987 -0.347125 -0.098805
v 0.448987 0.347199 -0.098804
v 0.449121 -0.352392 -0.068992
v 0.449121 0.352467 -0.068992
v 0.449774 -0.298355 -0.212782
v 0.449900 -0.307450 -0.195841
v 0.449997 -0.316446 -0.178206
v 0.452265 -0.350869 -0.041386
v 0.452265 0.350944 -0.041386
v 0.452783 -0.352108 -0.043482
v 0.452783 0.352182 -0.043482
v 0.452931 -0.352463 -0.045742
v 0.452931 0.352537 -0.045742
v 0.466158 -0.327966 -0.129261
v 0.466158 0.328040 -0.129261
v 0.466191 -0.334145 -0.111926
v 0.466191 0.334219 -0.111926
v 0.466249 -0.340236 -0.091566
v 0.466249 0.340310 -0.091566
v 0.466323 -0.345245 -0.065369
v 0.466323 0.345320 -0.065369
v 0.466594 -0.289917 -0.194535
v 0.466594 0.289992 -0.194535
v 0.466607 -0.294862 -0.194144
v 0.466607 0.294937 -0.194143
v 0.466612 -0.296893 -0.192708
v 0.466612 0.296967 -0.192708
v 0.466613 -0.298302 -0.190727
v 0.466613 0.298376 -0.190727
v 0.466646 -0.306382 -0.175965
v 0.466646 0.306456 -0.175964
v 0.466652 -0.314287 -0.160246
v 0.466652 0.314361 -0.160246
v 0.483327 -0.298105 -0.166174
v 0.483327 0.298179 -0.166173
v 0.483329 -0.296739 -0.168053
v 0.483329 0.296813 -0.168053
v 0.483337 -0.294621 -0.169456
v 0.483337 0.294696 -0.169456
v 0.483338 -0.305153 -0.153315
v 0.483338 0.305228 -0.153315
v 0.483402 -0.311923 -0.139571
v 0.483402 0.311997 -0.139571
v 0.483586 -0.337956 -0.060537
v 0.483586 0.338030 -0.060537
v 0.483721 -0.333642 -0.081731
v 0.483721 0.333716 -0.081730
v 0.483818 -0.328111 -0.098931
v 0.483818 0.328185 -0.098931
v 0.483869 -0.322567 -0.113890
v 0.483869 0.322641 -0.113890
v 0.500729 -0.331335 -0.045889
v 0.500729 0.331409 -0.045889
v 0.500744 -0.330352 -0.055986
v 0.500744 0.330427 -0.055986
v 0.500784 -0.298000 -0.136787
v 0.500784 0.298075 -0.136786
v 0.500785 -0.296659 -0.138588
v 0.500785 0.296733 -0.138588
v 0.500788 -0.294417 -0.140033
v 0.500788 0.294491 -0.140033
v 0.500825 -0.303923 -0.126263
v 0.500825 0.303997 -0.126263
v 0.500833 -0.326671 -0.072725
v 0.500833 0.326745 -0.072725
v 0.509101 -0.322716 -0.069950
v 0.509101 0.322790 -0.069950
v 0.509241 -0.326351 -0.054465
v 0.509241 0.326426 -0.054465
v 0.511693 0.322048 -0.040037
v 0.511751 -0.322094 -0.040093
v 0.512611 0.323951 -0.041480
v 0.512633 -0.323923 -0.041536
v 0.513185 -0.325068 -0.043679
v 0.513185 0.325141 -0.043675
v 0.513316 -0.325340 -0.046005
v 0.513316 0.325414 -0.046005
v 0.514944 0.324003 -0.051608
v 0.515956 -0.323080 -0.053728
v 0.517030 -0.323267 -0.045812
v 0.517325 -0.321956 -0.055895
v 0.517325 0.322030 -0.055895
v 0.517781 -0.298255 -0.103776
v 0.517781 0.298329 -0.103776
v 0.517791 -0.294338 -0.106704
v 0.517791 0.294412 -0.106704
v 0.517820 -0.319021 -0.065431
v 0.517820 0.319095 -0.065431
v 0.517998 0.317888 -0.040006
v 0.518075 -0.317907 -0.040054
v 0.518121 0.321383 -0.056919
v 0.518599 -0.322025 -0.049373
v 0.519312 0.319465 -0.041336
v 0.519325 0.319482 -0.041357
v 0.519345 -0.319431 -0.041388
v 0.520177 0.320504 -0.043378
v 0.520180 -0.320434 -0.043390
v 0.520450 -0.320758 -0.045600
v 0.520450 0.320832 -0.045600
v 0.520780 -0.320159 -0.053625
v 0.520780 0.320233 -0.053625
v 0.522102 0.317976 -0.061049
v 0.522280 0.319222 -0.045600
v 0.523251 -0.318220 -0.049884
v 0.523286 -0.316765 -0.062163
v 0.523370 0.318176 -0.050190
v 0.523585 0.312262 -0.040006
v 0.523789 -0.311937 -0.040006
v 0.524417 -0.315535 -0.063440
v 0.524651 -0.315261 -0.063740
v 0.524700 0.315278 -0.063802
v 0.525169 0.313567 -0.041336
v 0.525384 -0.313230 -0.041336
v 0.525658 -0.314072 -0.064895
v 0.525683 0.314117 -0.064918
v 0.525720 -0.315208 -0.061113
v 0.525720 0.315282 -0.061113
v 0.526149 0.313576 -0.065300
v 0.526213 0.314426 -0.043378
v 0.526221 -0.307916 -0.075249
v 0.526221 0.307990 -0.075249
v 0.526295 -0.313327 -0.065410
v 0.526388 -0.314810 -0.058101
v 0.526434 -0.314081 -0.043378
v 0.526672 -0.314465 -0.045600
v 0.526841 -0.303029 -0.080187
v 0.526841 0.303103 -0.080187
v 0.527083 0.314028 -0.059245
v 0.527147 -0.311713 -0.067183
v 0.527147 0.311787 -0.067183
v 0.527175 -0.293347 -0.086677
v 0.527175 0.293422 -0.086677
v 0.527245 -0.297639 -0.084739
v 0.527245 0.297714 -0.084739
v 0.527398 0.311957 -0.066428
v 0.527422 -0.311852 -0.066446
v 0.528177 -0.310917 -0.066866
v 0.528285 0.312441 -0.061036
v 0.528352 -0.311830 -0.064167
v 0.528352 0.311905 -0.064167
v 0.528644 0.310401 -0.067029
v 0.529628 0.301978 -0.040006
v 0.529675 -0.310327 -0.062557
v 0.529723 -0.301629 -0.040006
v 0.529790 -0.291022 -0.080217
v 0.529924 0.310008 -0.045600
v 0.530177 -0.308106 -0.067161
v 0.530256 0.308050 -0.067151
v 0.530479 0.309092 -0.063345
v 0.530665 0.296907 -0.040006
v 0.530666 -0.296618 -0.040006
v 0.530758 -0.308536 -0.063448
v 0.531215 -0.307343 -0.065269
v 0.531215 0.307418 -0.065269
v 0.531525 0.305793 -0.066727
v 0.531563 0.302664 -0.041336
v 0.531666 -0.302291 -0.041336
v 0.531974 -0.306215 -0.045600
v 0.532129 -0.304520 -0.066560
v 0.532354 0.305467 -0.045600
v 0.532360 0.305454 -0.063352
v 0.532362 0.294102 -0.073952
v 0.532718 0.296941 -0.041336
v 0.532719 -0.296608 -0.041336
v 0.532837 0.303116 -0.043378
v 0.532851 -0.302775 -0.066648
v 0.532946 -0.302727 -0.043378
v 0.533000 -0.295119 -0.071986
v 0.533193 0.293585 -0.071186
v 0.533350 -0.302865 -0.045600
v 0.533383 -0.301208 -0.066748
v 0.533418 -0.302261 -0.065256
v 0.533418 0.302335 -0.065256
v 0.533512 0.300819 -0.066781
v 0.533542 -0.302278 -0.063736
v 0.533630 0.296657 -0.069567
v 0.533689 0.301869 -0.063829
v 0.533808 0.301448 -0.045600
v 0.533815 -0.297130 -0.068727
v 0.533836 0.297306 -0.068604
v 0.533854 -0.298088 -0.067969
v 0.533861 0.298075 -0.068013
v 0.533873 -0.301129 -0.063948
v 0.534070 0.296964 -0.043378
v 0.534071 -0.296601 -0.043378
v 0.534162 -0.297357 -0.067397
v 0.534162 0.297432 -0.067397
v 0.534274 -0.296995 -0.067092
v 0.534274 0.297070 -0.067092
v 0.534359 -0.296630 -0.066781
v 0.534359 0.296704 -0.066781
v 0.534399 -0.298366 -0.045600
v 0.534414 -0.296263 -0.066466
v 0.534414 0.296337 -0.066466
v 0.534441 -0.295896 -0.066147
v 0.534441 0.295970 -0.066147
v 0.534453 0.295672 -0.065364
v 0.534496 0.296971 -0.045600
v 0.534498 -0.296598 -0.045600
f 397 625 441
f 442 626 398
f 421 625 397
f 260 258 398
f 260 256 258
f 254 258 256
f 422 398 626
f 935 626 625
f 427 625 421
f 415 421 397
f 201 254 256
f 402 478 468
f 604 616 606
f 604 606 588
f 644 646 601
f 648 601 646
f 453 451 468
f 175 199 193
f 135 125 139
f 255 202 261
f 265 261 202
f 599 644 601
f 599 597 642
f 599 642 644
f 575 522 577
f 482 478 503
f 526 482 503
f 429 431 625
f 429 625 427
f 429 427 421
f 396 415 397
f 396 397 391
f 465 469 463
f 471 463 469
f 206 254 201
f 266 204 201
f 375 451 440
f 480 503 478
f 480 478 402
f 432 626 640
f 780 640 626
f 617 616 604
f 570 572 542
f 706 714 732
f 706 690 714
f 674 648 646
f 701 644 642
f 701 699 644
f 730 706 732
f 758 730 732
f 486 472 474
f 466 99 464
f 462 453 474
f 462 472 464
f 462 474 472
f 444 440 451
f 444 451 453
f 444 453 462
f 476 474 453
f 476 478 482
f 476 468 478
f 476 453 468
f 408 434 99
f 408 284 406
f 3 2 1
f 76 284 408
f 76 408 99
f 249 283 287
f 249 287 251
f 203 265 202
f 203 269 265
f 203 202 187
f 203 187 193
f 203 193 199
f 171 151 175
f 171 175 193
f 171 193 187
f 210 311 305
f 210 203 199
f 207 199 175
f 207 210 199
f 189 187 202
f 189 202 201
f 189 201 190
f 224 230 236
f 228 222 230
f 228 230 224
f 228 224 219
f 228 214 222
f 228 219 214
f 56 139 125
f 196 222 214
f 253 202 255
f 263 255 261
f 263 261 265
f 271 265 269
f 389 395 396
f 389 396 391
f 595 566 575
f 603 601 648
f 603 577 601
f 603 575 577
f 579 601 577
f 579 599 601
f 581 579 526
f 581 597 599
f 581 599 579
f 844 625 779
f 619 606 616
f 475 477 467
f 443 439 437
f 393 467 477
f 541 539 516
f 590 571 588
f 590 588 606
f 136 124 134
f 294 300 204
f 294 204 286
f 290 204 274
f 290 286 204
f 270 274 204
f 270 204 266
f 262 201 256
f 262 266 201
f 386 468 451
f 386 402 468
f 438 375 440
f 438 404 375
f 438 440 444
f 438 406 404
f 416 398 422
f 416 399 398
f 656 658 664
f 605 607 617
f 605 589 607
f 605 617 604
f 591 589 572
f 591 572 570
f 591 607 589
f 568 566 595
f 488 472 486
f 704 702 686
f 704 706 730
f 688 690 706
f 688 671 690
f 688 704 686
f 688 706 704
f 697 699 717
f 697 717 713
f 697 713 711
f 693 703 685
f 709 735 727
f 709 727 703
f 709 703 693
f 765 727 735
f 739 711 713
f 739 713 743
f 800 802 806
f 814 822 886
f 733 707 731
f 733 715 707
f 733 759 757
f 733 731 759
f 729 703 727
f 705 731 707
f 705 707 689
f 705 703 729
f 705 729 731
f 934 626 935
f 843 780 626
f 811 803 801
f 768 803 785
f 11 2 35
f 11 35 14
f 11 1 2
f 11 14 1
f 27 14 35
f 524 482 526
f 524 526 579
f 524 577 522
f 524 579 577
f 484 486 474
f 484 474 476
f 484 476 482
f 484 482 524
f 484 522 486
f 484 524 522
f 449 464 99
f 449 99 434
f 93 95 280
f 282 89 93
f 282 93 280
f 282 88 89
f 87 76 99
f 19 3 1
f 19 1 8
f 19 8 9
f 19 9 10
f 19 10 13
f 19 13 18
f 121 124 39
f 121 39 119
f 121 134 124
f 121 127 134
f 46 39 124
f 250 284 76
f 245 251 247
f 245 249 251
f 245 247 236
f 245 236 230
f 245 230 222
f 317 311 210
f 209 210 207
f 209 325 317
f 209 317 210
f 209 212 331
f 146 151 149
f 146 149 129
f 168 187 129
f 168 129 149
f 168 151 171
f 168 149 151
f 111 104 102
f 165 105 104
f 191 166 183
f 191 196 214
f 123 125 135
f 75 222 196
f 75 245 222
f 75 196 191
f 75 249 245
f 75 191 183
f 75 283 249
f 75 183 166
f 75 166 77
f 75 407 283
f 80 79 94
f 80 63 79
f 96 469 465
f 435 407 433
f 435 443 437
f 178 161 173
f 339 226 354
f 339 181 178
f 339 212 181
f 339 331 212
f 163 195 161
f 216 173 161
f 216 161 195
f 216 195 226
f 216 226 339
f 216 178 173
f 216 339 178
f 185 195 163
f 185 191 214
f 185 166 191
f 144 135 139
f 144 139 147
f 353 354 226
f 353 234 243
f 353 243 247
f 232 224 236
f 232 236 234
f 232 234 224
f 329 397 321
f 91 94 79
f 91 79 92
f 90 92 79
f 338 398 346
f 177 340 217
f 332 340 213
f 332 213 324
f 227 217 340
f 17 100 24
f 205 202 253
f 205 201 202
f 205 206 201
f 257 253 255
f 267 263 265
f 267 265 271
f 267 397 263
f 267 271 397
f 611 595 575
f 611 575 603
f 652 603 648
f 652 658 603
f 652 664 658
f 587 597 581
f 842 866 625
f 842 625 844
f 842 844 866
f 781 844 779
f 845 844 781
f 915 625 879
f 861 625 866
f 861 879 625
f 600 602 647
f 423 429 421
f 639 431 429
f 639 625 431
f 639 779 625
f 649 616 617
f 649 617 650
f 473 471 485
f 580 533 525
f 537 539 567
f 569 590 592
f 569 592 567
f 569 571 590
f 569 567 539
f 569 541 571
f 569 539 541
f 608 610 592
f 608 590 606
f 608 592 590
f 110 105 165
f 156 176 160
f 126 124 136
f 126 46 124
f 126 57 46
f 296 294 286
f 296 286 290
f 296 300 294
f 276 274 270
f 272 270 266
f 272 398 276
f 272 276 270
f 264 256 260
f 264 262 256
f 264 260 398
f 264 266 262
f 385 451 375
f 385 386 451
f 388 402 386
f 436 438 444
f 436 406 438
f 436 408 406
f 436 434 408
f 418 399 416
f 418 416 422
f 426 420 418
f 721 640 780
f 691 707 715
f 691 689 707
f 691 672 689
f 687 705 689
f 687 685 703
f 687 703 705
f 654 650 617
f 540 542 517
f 540 570 542
f 540 568 570
f 538 566 568
f 538 568 540
f 593 568 595
f 593 595 611
f 593 591 570
f 593 570 568
f 497 460 488
f 470 472 488
f 470 464 472
f 470 466 464
f 719 699 701
f 719 717 699
f 719 741 717
f 745 741 753
f 745 717 741
f 745 753 775
f 745 743 713
f 745 713 717
f 749 739 743
f 749 771 769
f 816 773 792
f 816 824 826
f 676 674 646
f 676 699 697
f 676 646 644
f 676 644 699
f 695 693 674
f 695 697 711
f 695 711 709
f 695 709 693
f 695 674 676
f 695 676 697
f 747 749 769
f 747 739 749
f 812 806 802
f 812 834 806
f 804 747 769
f 804 812 802
f 804 814 812
f 763 727 765
f 763 729 727
f 763 765 802
f 763 802 800
f 927 890 883
f 969 970 968
f 864 878 883
f 904 902 939
f 904 856 902
f 854 856 904
f 854 904 897
f 805 811 801
f 813 803 811
f 813 885 821
f 813 785 803
f 813 821 785
f 750 744 742
f 750 774 744
f 712 744 716
f 712 742 744
f 728 726 702
f 728 702 704
f 728 704 730
f 728 762 726
f 42 44 35
f 61 44 42
f 48 35 44
f 48 44 61
f 58 42 40
f 58 61 42
f 82 88 90
f 64 79 63
f 64 63 61
f 7 8 1
f 4 1 14
f 4 14 27
f 50 35 48
f 50 48 61
f 515 540 517
f 515 513 538
f 515 538 540
f 412 458 457
f 281 88 282
f 281 90 88
f 278 280 95
f 33 35 2
f 33 42 35
f 33 40 42
f 29 119 39
f 29 115 119
f 29 108 115
f 29 101 108
f 74 76 87
f 303 307 309
f 303 309 397
f 299 293 203
f 299 210 305
f 299 203 210
f 323 331 325
f 323 325 209
f 323 209 331
f 319 321 313
f 319 313 311
f 319 311 317
f 315 313 321
f 315 397 309
f 315 321 397
f 169 171 187
f 169 187 168
f 169 168 171
f 30 9 8
f 30 10 9
f 30 8 7
f 30 13 10
f 122 187 165
f 122 165 104
f 188 190 201
f 188 201 204
f 142 131 166
f 142 185 153
f 142 166 185
f 142 139 131
f 142 147 139
f 137 77 166
f 137 131 77
f 137 166 131
f 67 77 131
f 67 75 77
f 67 131 139
f 47 56 125
f 47 125 123
f 132 123 135
f 132 151 146
f 132 146 129
f 132 144 151
f 132 135 144
f 71 63 80
f 71 61 63
f 71 73 50
f 71 50 61
f 86 73 71
f 86 71 80
f 86 75 73
f 86 80 94
f 86 94 96
f 98 465 463
f 98 96 465
f 98 433 407
f 98 407 75
f 98 75 86
f 98 86 96
f 446 443 435
f 446 435 433
f 405 407 435
f 405 283 407
f 405 435 437
f 405 437 403
f 405 287 283
f 405 403 287
f 363 287 403
f 363 251 287
f 363 247 251
f 363 353 247
f 159 161 178
f 157 163 161
f 157 142 153
f 157 153 185
f 157 185 163
f 157 147 142
f 157 161 159
f 157 159 147
f 155 175 151
f 155 151 144
f 155 159 175
f 155 144 147
f 155 147 159
f 367 354 364
f 367 364 374
f 367 379 369
f 359 367 369
f 381 369 379
f 381 391 397
f 381 379 389
f 381 389 391
f 377 387 389
f 377 389 379
f 377 379 367
f 377 367 374
f 241 234 236
f 241 243 234
f 241 236 247
f 241 247 243
f 239 353 226
f 239 234 353
f 327 317 325
f 327 319 317
f 327 329 321
f 327 321 319
f 337 335 345
f 337 345 397
f 337 397 329
f 337 329 327
f 337 327 335
f 341 331 339
f 494 496 96
f 492 490 516
f 162 160 177
f 342 340 332
f 246 76 223
f 246 250 76
f 246 248 252
f 246 252 250
f 16 18 13
f 16 17 18
f 16 100 17
f 16 30 100
f 16 13 30
f 22 18 17
f 22 17 24
f 22 100 18
f 22 24 100
f 259 397 257
f 259 263 397
f 259 255 263
f 259 257 255
f 624 603 658
f 624 611 603
f 670 674 693
f 670 648 674
f 670 652 648
f 670 664 652
f 670 685 664
f 670 693 685
f 424 418 422
f 424 426 418
f 424 562 426
f 430 432 640
f 430 640 583
f 430 626 432
f 559 430 583
f 559 562 424
f 559 424 430
f 615 642 597
f 615 597 587
f 869 871 875
f 922 935 625
f 922 625 915
f 645 600 647
f 582 639 429
f 852 876 871
f 452 473 475
f 452 475 467
f 452 467 454
f 483 473 485
f 483 475 473
f 483 485 521
f 502 525 533
f 596 580 598
f 596 641 614
f 596 598 641
f 586 533 580
f 586 596 614
f 586 580 596
f 578 598 580
f 578 600 598
f 578 580 525
f 459 96 496
f 594 592 610
f 594 567 592
f 621 606 619
f 621 608 606
f 621 619 655
f 621 655 657
f 103 105 110
f 103 108 101
f 103 110 108
f 141 110 165
f 141 165 150
f 113 108 110
f 113 119 115
f 113 115 108
f 200 208 176
f 180 176 208
f 180 160 176
f 180 177 160
f 180 208 213
f 211 204 300
f 211 300 306
f 211 200 204
f 211 208 200
f 211 306 312
f 211 312 318
f 145 136 134
f 172 176 156
f 292 296 290
f 292 276 398
f 292 290 274
f 292 274 276
f 304 398 310
f 268 398 272
f 268 264 398
f 268 272 266
f 268 266 264
f 401 402 388
f 447 436 444
f 447 444 462
f 447 449 434
f 447 434 436
f 447 462 464
f 447 464 449
f 244 248 242
f 355 248 244
f 365 375 404
f 365 248 355
f 365 252 248
f 378 386 376
f 378 388 386
f 378 390 388
f 499 401 420
f 638 640 721
f 638 583 640
f 725 741 719
f 620 654 617
f 620 656 654
f 620 617 607
f 668 672 650
f 668 650 654
f 668 689 672
f 668 687 689
f 536 538 513
f 536 566 538
f 495 497 513
f 495 513 515
f 495 457 458
f 97 470 488
f 97 99 466
f 97 466 470
f 97 87 99
f 97 95 87
f 97 278 95
f 97 488 460
f 97 460 497
f 97 495 458
f 97 497 495
f 618 647 602
f 618 651 647
f 618 657 651
f 673 675 645
f 673 645 647
f 796 808 810
f 796 810 794
f 796 757 759
f 796 794 757
f 874 877 870
f 874 890 877
f 917 931 920
f 917 899 877
f 917 877 890
f 932 948 944
f 932 931 948
f 932 920 931
f 830 857 832
f 830 855 857
f 830 892 855
f 830 832 810
f 830 810 808
f 905 857 855
f 848 826 824
f 848 849 826
f 848 824 846
f 848 846 870
f 751 745 775
f 751 792 773
f 751 775 792
f 751 743 745
f 751 749 743
f 751 773 749
f 818 816 826
f 767 765 735
f 767 735 747
f 767 747 804
f 767 802 765
f 767 804 802
f 737 747 735
f 737 739 747
f 737 735 709
f 737 709 711
f 737 711 739
f 786 769 771
f 786 804 769
f 786 822 814
f 786 814 804
f 761 729 763
f 761 759 731
f 761 731 729
f 761 763 800
f 913 883 878
f 913 927 883
f 913 878 626
f 949 948 931
f 949 969 948
f 928 935 922
f 928 922 915
f 860 626 878
f 860 864 626
f 860 878 864
f 841 843 626
f 841 626 864
f 841 864 843
f 967 969 968
f 965 948 969
f 965 962 948
f 965 969 967
f 916 939 902
f 916 933 939
f 916 902 933
f 940 939 933
f 799 801 776
f 799 776 797
f 799 805 801
f 799 797 805
f 760 776 762
f 760 758 776
f 760 762 728
f 760 730 758
f 760 728 730
f 795 776 758
f 795 797 776
f 795 793 809
f 789 815 772
f 789 817 815
f 748 746 768
f 748 772 750
f 748 750 742
f 748 789 772
f 835 817 787
f 835 852 817
f 791 774 750
f 791 783 774
f 791 815 783
f 791 772 815
f 791 750 772
f 778 801 803
f 778 803 768
f 778 768 746
f 884 866 895
f 884 861 866
f 884 879 861
f 884 895 928
f 884 915 879
f 884 928 915
f 914 894 910
f 41 34 43
f 70 61 58
f 70 64 61
f 70 58 68
f 70 79 64
f 70 68 82
f 70 90 79
f 70 82 90
f 52 73 75
f 52 50 73
f 52 27 35
f 52 35 50
f 493 517 491
f 493 515 517
f 493 457 495
f 493 495 515
f 493 412 457
f 350 280 278
f 6 3 19
f 6 34 3
f 45 43 34
f 21 29 15
f 21 15 6
f 21 19 101
f 301 307 303
f 301 305 307
f 301 299 305
f 5 30 7
f 5 4 30
f 5 7 1
f 5 1 4
f 107 102 100
f 107 100 30
f 107 30 114
f 36 30 4
f 36 47 123
f 128 104 111
f 128 122 104
f 128 129 187
f 128 187 122
f 128 132 129
f 54 75 67
f 54 52 75
f 54 139 56
f 54 67 139
f 54 56 47
f 54 47 36
f 448 98 463
f 448 433 98
f 448 463 446
f 448 446 433
f 179 175 159
f 179 159 178
f 179 178 181
f 179 181 212
f 179 212 209
f 179 207 175
f 179 209 207
f 361 359 369
f 361 397 345
f 361 345 359
f 445 439 443
f 373 437 439
f 373 403 437
f 373 363 403
f 373 439 445
f 373 445 383
f 384 454 467
f 384 467 393
f 384 387 377
f 384 377 374
f 220 239 226
f 220 234 239
f 220 226 195
f 220 195 185
f 220 224 234
f 220 219 224
f 220 214 219
f 220 185 214
f 333 331 341
f 333 341 335
f 333 325 331
f 333 327 325
f 333 335 327
f 343 345 335
f 343 335 341
f 343 359 345
f 343 341 359
f 357 359 341
f 357 354 367
f 357 367 359
f 357 339 354
f 357 341 339
f 277 96 94
f 277 351 96
f 512 510 496
f 512 496 494
f 512 537 510
f 349 351 277
f 330 398 338
f 330 322 398
f 330 320 322
f 330 328 320
f 326 332 324
f 326 211 318
f 326 318 320
f 326 320 328
f 326 208 211
f 326 324 213
f 326 213 208
f 336 330 338
f 336 328 330
f 336 326 328
f 336 338 346
f 174 177 217
f 174 217 162
f 174 162 177
f 198 217 227
f 198 227 221
f 198 162 217
f 622 620 607
f 622 656 620
f 622 658 656
f 622 624 658
f 428 422 626
f 428 626 430
f 428 424 422
f 428 430 424
f 613 615 587
f 868 895 866
f 868 866 844
f 868 844 845
f 754 783 781
f 718 698 716
f 718 724 682
f 696 712 716
f 696 716 698
f 696 698 675
f 643 641 598
f 643 598 600
f 643 600 645
f 417 421 415
f 417 423 421
f 417 396 395
f 417 415 396
f 394 417 395
f 394 419 417
f 394 389 387
f 394 395 389
f 394 387 384
f 394 384 393
f 425 561 423
f 425 423 417
f 425 417 419
f 560 582 429
f 560 429 423
f 560 423 561
f 887 871 876
f 887 875 871
f 887 894 875
f 887 910 894
f 825 815 817
f 825 817 852
f 858 876 852
f 858 835 837
f 858 852 835
f 858 821 876
f 667 649 671
f 667 671 688
f 667 688 686
f 667 686 665
f 684 665 686
f 684 686 702
f 684 702 692
f 653 655 619
f 653 619 616
f 653 616 649
f 653 649 667
f 653 665 655
f 653 667 665
f 461 443 446
f 461 452 443
f 461 446 463
f 461 473 452
f 461 463 471
f 461 471 473
f 481 525 502
f 481 475 483
f 481 477 475
f 481 502 477
f 479 393 477
f 479 477 502
f 498 419 394
f 531 533 586
f 576 600 578
f 576 602 600
f 523 578 525
f 523 483 521
f 523 521 576
f 523 576 578
f 523 525 481
f 523 481 483
f 535 510 537
f 535 518 510
f 519 521 485
f 489 510 518
f 489 496 510
f 489 459 496
f 489 96 459
f 574 602 576
f 574 576 521
f 574 521 519
f 573 519 518
f 573 574 519
f 573 594 610
f 573 610 602
f 573 602 574
f 116 110 141
f 116 113 110
f 116 119 113
f 116 121 119
f 116 127 121
f 182 180 213
f 182 177 180
f 182 213 340
f 182 340 177
f 170 165 188
f 170 172 165
f 170 188 172
f 152 150 165
f 152 165 172
f 152 134 141
f 152 141 150
f 152 172 156
f 152 145 134
f 152 156 145
f 194 172 188
f 194 188 204
f 194 204 200
f 194 200 176
f 194 176 172
f 140 126 136
f 140 57 126
f 140 136 145
f 140 133 66
f 298 292 398
f 298 296 292
f 298 398 304
f 298 304 296
f 302 310 308
f 302 304 310
f 302 306 300
f 302 308 306
f 302 300 296
f 302 296 304
f 314 312 306
f 314 306 308
f 314 318 312
f 314 320 318
f 392 398 399
f 392 399 390
f 400 401 388
f 400 388 390
f 400 390 399
f 400 399 418
f 400 418 420
f 400 420 401
f 240 221 227
f 240 227 355
f 288 365 404
f 288 252 365
f 288 406 284
f 288 404 406
f 288 284 250
f 288 250 252
f 504 420 508
f 529 420 543
f 548 420 426
f 548 543 420
f 679 721 681
f 723 681 721
f 723 721 780
f 683 725 719
f 683 719 701
f 683 681 723
f 683 723 725
f 683 701 642
f 784 775 753
f 784 792 775
f 784 816 792
f 784 824 816
f 666 654 656
f 666 668 654
f 666 656 664
f 666 687 668
f 666 664 685
f 666 685 687
f 511 536 513
f 511 488 536
f 511 513 497
f 511 497 488
f 520 536 488
f 520 566 536
f 520 522 575
f 520 575 566
f 520 486 522
f 520 488 486
f 410 97 458
f 410 458 412
f 410 412 350
f 623 621 657
f 623 657 618
f 623 618 602
f 623 602 610
f 623 610 608
f 623 608 621
f 708 692 702
f 708 702 726
f 798 808 796
f 798 800 806
f 798 806 808
f 798 761 800
f 798 796 759
f 798 759 761
f 867 890 874
f 867 874 870
f 867 870 846
f 867 846 843
f 909 899 917
f 909 917 920
f 909 920 911
f 925 920 932
f 925 911 920
f 925 932 944
f 925 944 926
f 828 892 830
f 828 806 834
f 828 808 806
f 828 830 808
f 903 857 905
f 903 905 933
f 903 933 902
f 945 926 944
f 945 905 926
f 945 953 905
f 945 944 958
f 945 958 953
f 898 905 855
f 898 926 905
f 898 855 892
f 790 773 816
f 790 816 818
f 790 818 771
f 790 771 749
f 790 749 773
f 853 818 826
f 820 822 786
f 921 934 927
f 921 927 913
f 921 626 934
f 921 913 626
f 955 969 949
f 955 934 935
f 955 935 956
f 955 970 969
f 955 956 970
f 938 956 935
f 938 935 928
f 938 928 895
f 947 962 939
f 947 939 940
f 947 940 933
f 947 933 905
f 947 905 953
f 950 904 939
f 950 952 904
f 959 950 939
f 930 897 904
f 930 904 937
f 942 904 952
f 942 937 904
f 891 854 897
f 829 809 831
f 829 831 856
f 829 856 854
f 829 854 891
f 829 891 827
f 756 793 795
f 756 795 758
f 756 758 732
f 770 748 768
f 770 768 785
f 770 785 787
f 770 789 748
f 770 787 817
f 770 817 789
f 738 736 746
f 738 746 748
f 738 748 742
f 738 742 712
f 819 837 835
f 819 835 787
f 819 858 837
f 819 787 785
f 819 821 858
f 819 785 821
f 777 776 801
f 777 801 778
f 777 762 776
f 766 778 746
f 923 910 924
f 923 914 910
f 83 93 89
f 83 89 88
f 83 88 82
f 59 41 43
f 414 350 412
f 414 493 491
f 414 412 493
f 37 29 39
f 37 39 46
f 32 15 29
f 32 28 15
f 32 29 37
f 12 6 15
f 12 15 28
f 12 34 6
f 12 45 34
f 72 51 74
f 72 74 87
f 20 6 19
f 20 19 21
f 20 21 6
f 26 101 29
f 295 293 299
f 295 299 301
f 295 301 303
f 273 269 203
f 112 117 128
f 112 107 114
f 31 4 27
f 31 36 4
f 31 27 52
f 31 52 54
f 31 54 36
f 120 123 132
f 120 128 117
f 120 132 128
f 371 369 381
f 371 361 369
f 371 381 397
f 371 397 361
f 450 443 452
f 450 445 443
f 450 452 454
f 450 383 445
f 450 384 383
f 450 454 384
f 514 494 492
f 514 512 494
f 514 492 516
f 514 516 539
f 514 539 537
f 514 537 512
f 279 92 90
f 279 91 92
f 279 94 91
f 279 277 94
f 279 349 277
f 455 494 96
f 455 492 494
f 334 342 332
f 334 336 342
f 334 332 326
f 334 326 336
f 344 336 346
f 344 342 336
f 235 244 242
f 235 221 240
f 235 355 244
f 235 240 355
f 231 246 223
f 231 223 229
f 186 198 221
f 609 622 607
f 609 593 611
f 609 611 624
f 609 624 622
f 609 607 591
f 609 591 593
f 660 615 613
f 740 754 724
f 740 724 718
f 740 716 744
f 740 718 716
f 700 682 641
f 700 718 682
f 700 698 718
f 720 779 639
f 633 582 560
f 633 560 561
f 612 629 561
f 659 629 612
f 659 612 614
f 881 885 887
f 881 821 885
f 669 684 692
f 669 692 673
f 669 647 651
f 669 673 647
f 500 479 502
f 500 498 394
f 500 394 393
f 500 393 479
f 500 531 509
f 500 502 533
f 500 533 531
f 527 509 531
f 527 531 530
f 527 419 509
f 527 530 419
f 555 561 425
f 555 551 561
f 555 425 551
f 546 530 531
f 563 612 561
f 584 531 586
f 584 612 563
f 584 586 614
f 584 614 612
f 487 518 519
f 487 489 518
f 487 519 485
f 487 469 96
f 487 96 489
f 487 471 469
f 487 485 471
f 565 567 594
f 565 594 573
f 565 573 518
f 565 518 535
f 565 537 567
f 565 535 537
f 130 127 116
f 130 116 141
f 130 134 127
f 130 141 134
f 197 223 76
f 138 133 167
f 316 322 320
f 316 320 314
f 316 398 322
f 316 310 398
f 316 308 310
f 316 314 308
f 362 346 398
f 362 398 372
f 362 344 346
f 380 390 378
f 382 372 398
f 382 398 392
f 382 392 390
f 382 390 380
f 505 499 420
f 505 420 504
f 505 504 508
f 528 508 420
f 528 420 529
f 532 528 529
f 532 508 528
f 552 548 426
f 755 725 723
f 755 741 725
f 755 753 741
f 755 784 753
f 352 278 97
f 352 97 410
f 352 350 278
f 352 410 350
f 734 736 708
f 734 708 726
f 734 746 736
f 734 766 746
f 694 675 673
f 694 696 675
f 694 673 692
f 694 692 708
f 865 843 864
f 865 867 843
f 865 890 867
f 865 883 890
f 865 864 883
f 889 911 906
f 889 814 886
f 889 812 814
f 889 906 812
f 901 834 812
f 901 812 906
f 901 828 834
f 912 906 911
f 912 911 925
f 912 901 906
f 912 892 828
f 912 828 901
f 882 886 822
f 888 877 899
f 888 882 873
f 888 899 909
f 888 909 911
f 888 886 882
f 888 889 886
f 888 911 889
f 862 836 818
f 862 818 853
f 862 873 836
f 840 826 849
f 840 853 826
f 840 849 853
f 838 836 873
f 838 820 836
f 788 818 836
f 788 836 820
f 788 771 818
f 788 786 771
f 788 820 786
f 936 955 949
f 936 949 931
f 936 927 934
f 936 934 955
f 936 931 917
f 936 890 927
f 936 917 890
f 963 970 956
f 963 956 938
f 960 947 958
f 960 962 947
f 960 948 962
f 960 944 948
f 960 958 944
f 951 953 958
f 951 958 947
f 951 947 953
f 964 963 954
f 961 939 962
f 961 959 939
f 961 954 959
f 961 964 954
f 943 937 942
f 943 924 930
f 943 930 937
f 957 942 952
f 957 952 950
f 957 950 959
f 957 943 942
f 957 959 954
f 957 954 943
f 918 891 897
f 918 897 930
f 918 930 924
f 918 924 910
f 807 809 829
f 807 805 797
f 807 827 805
f 807 829 827
f 807 795 809
f 807 797 795
f 764 726 762
f 764 762 777
f 764 734 726
f 764 766 734
f 764 777 778
f 764 778 766
f 896 894 914
f 896 875 894
f 896 869 875
f 896 895 868
f 896 868 869
f 413 490 492
f 348 350 414
f 348 282 280
f 348 280 350
f 53 51 28
f 53 28 32
f 53 76 74
f 53 74 51
f 49 12 28
f 49 45 12
f 49 28 51
f 49 51 72
f 81 87 95
f 81 72 87
f 25 26 29
f 25 101 26
f 289 295 291
f 289 273 203
f 297 295 303
f 297 291 295
f 297 303 397
f 297 397 291
f 275 271 269
f 275 269 273
f 275 397 271
f 275 291 397
f 275 289 291
f 275 273 289
f 109 107 112
f 109 112 128
f 109 111 102
f 109 128 111
f 38 30 36
f 38 36 123
f 38 123 120
f 409 351 349
f 409 96 351
f 409 455 96
f 456 492 455
f 238 248 246
f 238 242 248
f 238 235 242
f 148 140 145
f 148 156 160
f 148 145 156
f 143 167 133
f 143 186 167
f 143 133 140
f 143 140 148
f 630 681 660
f 630 613 562
f 630 660 613
f 662 681 683
f 662 660 681
f 662 683 642
f 662 642 615
f 662 615 660
f 752 754 740
f 752 774 783
f 752 783 754
f 752 744 774
f 752 740 744
f 677 641 643
f 677 700 641
f 677 698 700
f 677 675 698
f 677 645 675
f 677 643 645
f 722 682 724
f 722 724 754
f 722 754 781
f 722 781 779
f 722 779 720
f 637 639 582
f 637 582 633
f 637 720 639
f 637 633 720
f 627 561 629
f 680 629 659
f 680 627 629
f 680 682 722
f 680 722 720
f 661 614 641
f 661 659 614
f 661 641 682
f 661 682 680
f 661 680 659
f 880 887 876
f 880 881 887
f 880 876 821
f 880 821 881
f 850 852 871
f 823 815 825
f 823 825 847
f 823 783 815
f 823 847 845
f 823 781 783
f 823 845 781
f 663 665 684
f 663 684 669
f 663 657 655
f 663 655 665
f 663 651 657
f 663 669 651
f 507 500 509
f 507 498 500
f 507 419 498
f 545 419 530
f 545 530 546
f 557 584 563
f 557 561 551
f 557 563 561
f 549 545 546
f 549 546 531
f 549 531 584
f 184 76 167
f 78 66 133
f 78 133 138
f 78 76 66
f 78 167 76
f 78 138 167
f 366 378 376
f 370 380 378
f 370 372 382
f 370 382 380
f 360 344 362
f 360 342 344
f 360 358 342
f 360 362 372
f 360 372 370
f 544 529 543
f 544 532 529
f 534 526 503
f 534 581 526
f 534 587 581
f 534 532 587
f 501 508 532
f 501 505 508
f 501 534 503
f 501 532 534
f 501 499 505
f 501 401 499
f 501 503 480
f 501 480 402
f 501 402 401
f 564 562 613
f 556 426 562
f 556 552 426
f 556 562 564
f 585 587 532
f 585 613 587
f 585 564 613
f 782 723 780
f 782 755 723
f 782 784 755
f 782 780 843
f 782 843 846
f 782 846 824
f 782 824 784
f 710 712 696
f 710 696 694
f 710 738 712
f 710 694 708
f 710 708 736
f 710 736 738
f 919 925 926
f 919 912 925
f 919 926 898
f 919 898 892
f 919 892 912
f 872 862 853
f 872 853 849
f 872 870 877
f 872 848 870
f 872 849 848
f 872 877 888
f 872 888 873
f 872 873 862
f 859 838 873
f 859 820 838
f 859 822 820
f 859 882 822
f 859 873 882
f 941 954 963
f 941 963 938
f 966 967 968
f 966 968 970
f 966 970 963
f 966 963 964
f 908 827 891
f 908 891 918
f 908 918 910
f 908 910 907
f 893 813 811
f 893 885 813
f 893 907 910
f 893 887 885
f 893 910 887
f 833 805 827
f 833 811 805
f 833 827 908
f 347 413 349
f 347 349 279
f 347 90 281
f 347 279 90
f 55 53 32
f 55 37 46
f 55 32 37
f 55 46 57
f 55 76 53
f 55 66 76
f 55 57 140
f 55 140 66
f 62 72 81
f 84 83 69
f 84 69 65
f 84 93 83
f 23 29 21
f 23 25 29
f 23 21 101
f 23 101 25
f 285 203 293
f 285 289 203
f 285 293 295
f 285 295 289
f 106 102 107
f 106 109 102
f 106 107 109
f 118 30 38
f 118 38 120
f 118 114 30
f 118 120 117
f 118 112 114
f 118 117 112
f 411 409 349
f 411 455 409
f 411 456 455
f 411 349 413
f 411 413 492
f 411 492 456
f 237 246 231
f 237 238 246
f 237 235 238
f 237 233 235
f 154 186 143
f 158 143 148
f 158 160 162
f 158 148 160
f 158 154 143
f 158 186 154
f 634 679 681
f 634 638 721
f 634 721 679
f 634 562 559
f 634 559 583
f 634 583 638
f 631 633 561
f 631 561 627
f 631 627 633
f 635 633 627
f 635 680 633
f 635 627 680
f 678 720 633
f 678 680 720
f 678 633 680
f 839 847 825
f 839 850 847
f 839 825 852
f 839 852 850
f 863 850 871
f 863 871 869
f 506 509 419
f 506 507 509
f 506 419 507
f 553 551 549
f 553 549 584
f 553 557 551
f 553 584 557
f 547 549 551
f 547 545 549
f 547 419 545
f 547 425 419
f 547 551 425
f 192 197 76
f 192 76 184
f 192 184 167
f 192 167 186
f 225 218 221
f 225 229 218
f 225 231 229
f 225 221 235
f 225 235 233
f 225 237 231
f 225 233 237
f 356 227 340
f 356 355 227
f 356 340 342
f 356 342 358
f 368 378 366
f 368 370 378
f 368 366 356
f 368 356 358
f 368 358 360
f 368 360 370
f 550 543 548
f 550 544 543
f 550 548 552
f 550 532 544
f 550 585 532
f 558 564 585
f 558 552 556
f 558 556 564
f 946 923 924
f 946 924 943
f 946 943 954
f 946 954 941
f 900 908 907
f 900 833 908
f 900 811 833
f 900 893 811
f 900 907 893
f 60 49 72
f 60 72 62
f 60 45 49
f 60 43 45
f 60 62 65
f 60 59 43
f 60 69 59
f 60 65 69
f 85 65 62
f 85 84 65
f 85 62 81
f 85 81 95
f 85 95 93
f 85 93 84
f 164 198 186
f 164 186 158
f 164 162 198
f 164 158 162
f 636 634 681
f 632 562 634
f 632 634 636
f 851 847 850
f 851 850 863
f 851 863 869
f 851 845 847
f 851 868 845
f 851 869 868
f 215 223 197
f 215 197 192
f 215 229 223
f 215 218 229
f 215 192 186
f 215 186 221
f 215 221 218
f 554 550 552
f 554 585 550
f 554 552 558
f 554 558 585
f 929 923 946
f 929 946 941
f 929 914 923
f 929 896 914
f 929 895 896
f 929 938 895
f 929 941 938
f 628 630 562
f 628 562 632
f 628 632 636
f 628 681 630
f 628 636 681
f 442 625 626
f 442 441 625
f 442 397 441
f 442 398 397
f 571 572 589
f 571 589 588
f 541 516 517
f 541 517 542
f 541 572 571
f 541 542 572
f 605 588 589
f 605 604 588
f 733 714 715
f 733 732 714
f 831 810 832
f 831 809 810
f 831 832 857
f 831 857 856
f 19 18 100
f 19 100 101
f 313 307 305
f 313 305 311
f 205 253 254
f 205 254 206
f 257 397 398
f 257 398 258
f 257 254 253
f 257 258 254
f 649 650 672
f 649 672 671
f 376 386 385
f 376 385 375
f 691 715 714
f 691 714 690
f 691 671 672
f 691 690 671
f 793 810 809
f 793 794 810
f 491 517 516
f 491 516 490
f 33 3 34
f 33 2 3
f 315 307 313
f 315 309 307
f 188 165 187
f 188 189 190
f 188 187 189
f 363 354 353
f 363 364 354
f 103 101 100
f 103 100 102
f 103 102 104
f 103 104 105
f 41 33 34
f 41 40 33
f 373 364 363
f 373 374 364
f 384 374 373
f 384 373 383
f 903 856 857
f 903 902 856
f 756 794 793
f 756 757 794
f 756 732 733
f 756 733 757
f 83 68 69
f 83 82 68
f 59 69 68
f 59 68 58
f 59 40 41
f 59 58 40
f 961 965 964
f 961 962 965
f 413 491 490
f 413 414 491
f 366 376 375
f 366 375 365
f 966 964 965
f 966 965 967
f 347 282 348
f 347 281 282
f 347 414 413
f 347 348 414
f 356 366 365
f 356 365 355
